HIERARCHY
ROOT hip
{
  OFFSET 0 90.174 2.4664
  CHANNELS 6 Xposition Yposition Zposition Zrotation Xrotation Yrotation
  JOINT abdomen
  {
    OFFSET 0 -1.186 -1.5018
    CHANNELS 6 Xposition Yposition Zposition Zrotation Xrotation Yrotation
    JOINT abdomen2
    {
      OFFSET 0 9.964 0.2134
      CHANNELS 6 Xposition Yposition Zposition Zrotation Xrotation Yrotation
      JOINT chest
      {
        OFFSET 0 13.134 -3.2573
        CHANNELS 6 Xposition Yposition Zposition Zrotation Xrotation Yrotation
        JOINT neck
        {
          OFFSET 0 20.686 -1.6905
          CHANNELS 6 Xposition Yposition Zposition Zrotation Xrotation Yrotation
          JOINT head
          {
            OFFSET 0 7.238 -0.1237
            CHANNELS 6 Xposition Yposition Zposition Zrotation Xrotation Yrotation
            End Site
            {
              OFFSET 0 0 0
            }
          }
        }
        JOINT lCollar
        {
          OFFSET 1.7069 20.075 5.0056
          CHANNELS 6 Xposition Yposition Zposition Zrotation Xrotation Yrotation
          JOINT lShldr
          {
            OFFSET 13.6458 -0.047 -4.849
            CHANNELS 6 Xposition Yposition Zposition Zrotation Xrotation Yrotation
            JOINT lForeArm
            {
              OFFSET 28.3255 -0.9759 2.2888
              CHANNELS 6 Xposition Yposition Zposition Zrotation Xrotation Yrotation
              JOINT lHand
              {
                OFFSET 22.1583 -0.53 10.8316
                CHANNELS 6 Xposition Yposition Zposition Zrotation Xrotation Yrotation
                JOINT lThumb1
                {
                  OFFSET 0.786 0.112 2.5817
                  CHANNELS 6 Xposition Yposition Zposition Zrotation Xrotation Yrotation
                  JOINT lThumb2
                  {
                    OFFSET 0.3601 -0.878 4.2331
                    CHANNELS 6 Xposition Yposition Zposition Zrotation Xrotation Yrotation
                    JOINT lThumb2_End
                    {
                      OFFSET 1.8127 -1.216 2.2227
                      CHANNELS 6 Xposition Yposition Zposition Zrotation Xrotation Yrotation
                      End Site
                      {
                        OFFSET 0.0181 -0.0122 0.0222
                      }
                    }
                  }
                }
                JOINT lCarpal1
                {
                  OFFSET 0.9571 1.114 1.7695
                  CHANNELS 6 Xposition Yposition Zposition Zrotation Xrotation Yrotation
                  JOINT lIndex1
                  {
                    OFFSET 4.1246 0.487 4.1451
                    CHANNELS 6 Xposition Yposition Zposition Zrotation Xrotation Yrotation
                    JOINT lIndex2
                    {
                      OFFSET 3.4052 -1.454 2.7682
                      CHANNELS 6 Xposition Yposition Zposition Zrotation Xrotation Yrotation
                      JOINT lIndex2_End
                      {
                        OFFSET 1.4531 -1.795 1.2713
                        CHANNELS 6 Xposition Yposition Zposition Zrotation Xrotation Yrotation
                        End Site
                        {
                          OFFSET 0.0145 -0.0179 0.0127
                        }
                      }
                    }
                  }
                  JOINT lMid1
                  {
                    OFFSET 5.6954 0.21 2.1184
                    CHANNELS 6 Xposition Yposition Zposition Zrotation Xrotation Yrotation
                    JOINT lMid2
                    {
                      OFFSET 3.9766 -1.54 2.3863
                      CHANNELS 6 Xposition Yposition Zposition Zrotation Xrotation Yrotation
                      JOINT lMid2_End
                      {
                        OFFSET 1.4042 -1.926 1.125
                        CHANNELS 6 Xposition Yposition Zposition Zrotation Xrotation Yrotation
                        End Site
                        {
                          OFFSET 0.014 -0.0193 0.0113
                        }
                      }
                    }
                  }
                }
                JOINT lCarpal2
                {
                  OFFSET 2.0956 0.66 -0.3894
                  CHANNELS 6 Xposition Yposition Zposition Zrotation Xrotation Yrotation
                  JOINT lRing1
                  {
                    OFFSET 5.0395 -0.09 2.4971
                    CHANNELS 6 Xposition Yposition Zposition Zrotation Xrotation Yrotation
                    JOINT lRing2
                    {
                      OFFSET 3.7921 -1.552 1.4806
                      CHANNELS 6 Xposition Yposition Zposition Zrotation Xrotation Yrotation
                      JOINT lRing2_End
                      {
                        OFFSET 1.4655 -1.808 0.9609
                        CHANNELS 6 Xposition Yposition Zposition Zrotation Xrotation Yrotation
                        End Site
                        {
                          OFFSET 0.0147 -0.0181 0.0096
                        }
                      }
                    }
                  }
                  JOINT lPinky1
                  {
                    OFFSET 4.9141 -1.269 0.3591
                    CHANNELS 6 Xposition Yposition Zposition Zrotation Xrotation Yrotation
                    JOINT lPinky2
                    {
                      OFFSET 3.1477 -1.685 0.8462
                      CHANNELS 6 Xposition Yposition Zposition Zrotation Xrotation Yrotation
                      JOINT lPinky2_End
                      {
                        OFFSET 0.8055 -1.585 0.7955
                        CHANNELS 6 Xposition Yposition Zposition Zrotation Xrotation Yrotation
                        End Site
                        {
                          OFFSET 0.0081 -0.0158 0.008
                        }
                      }
                    }
                  }
                }
              }
            }
          }
        }
        JOINT rCollar
        {
          OFFSET -1.7069 20.075 5.0056
          CHANNELS 6 Xposition Yposition Zposition Zrotation Xrotation Yrotation
          JOINT rShldr
          {
            OFFSET -13.6458 -0.047 -4.849
            CHANNELS 6 Xposition Yposition Zposition Zrotation Xrotation Yrotation
            JOINT rForeArm
            {
              OFFSET -28.3255 -0.9759 2.2888
              CHANNELS 6 Xposition Yposition Zposition Zrotation Xrotation Yrotation
              JOINT rHand
              {
                OFFSET -22.1583 -0.53 10.8316
                CHANNELS 6 Xposition Yposition Zposition Zrotation Xrotation Yrotation
                JOINT rThumb1
                {
                  OFFSET -0.786 0.112 2.5817
                  CHANNELS 6 Xposition Yposition Zposition Zrotation Xrotation Yrotation
                  JOINT rThumb2
                  {
                    OFFSET -0.3601 -0.878 4.2331
                    CHANNELS 6 Xposition Yposition Zposition Zrotation Xrotation Yrotation
                    JOINT rThumb2_End
                    {
                      OFFSET -1.8127 -1.216 2.2227
                      CHANNELS 6 Xposition Yposition Zposition Zrotation Xrotation Yrotation
                      End Site
                      {
                        OFFSET -0.0181 -0.0122 0.0222
                      }
                    }
                  }
                }
                JOINT rCarpal1
                {
                  OFFSET -0.9571 1.114 1.7695
                  CHANNELS 6 Xposition Yposition Zposition Zrotation Xrotation Yrotation
                  JOINT rIndex1
                  {
                    OFFSET -4.1246 0.487 4.1451
                    CHANNELS 6 Xposition Yposition Zposition Zrotation Xrotation Yrotation
                    JOINT rIndex2
                    {
                      OFFSET -3.4052 -1.454 2.7682
                      CHANNELS 6 Xposition Yposition Zposition Zrotation Xrotation Yrotation
                      JOINT rIndex2_End
                      {
                        OFFSET -1.4531 -1.795 1.2713
                        CHANNELS 6 Xposition Yposition Zposition Zrotation Xrotation Yrotation
                        End Site
                        {
                          OFFSET -0.0145 -0.018 0.0127
                        }
                      }
                    }
                  }
                  JOINT rMid1
                  {
                    OFFSET -5.6954 0.21 2.1184
                    CHANNELS 6 Xposition Yposition Zposition Zrotation Xrotation Yrotation
                    JOINT rMid2
                    {
                      OFFSET -3.9766 -1.54 2.3863
                      CHANNELS 6 Xposition Yposition Zposition Zrotation Xrotation Yrotation
                      JOINT rMid2_End
                      {
                        OFFSET -1.4042 -1.926 1.125
                        CHANNELS 6 Xposition Yposition Zposition Zrotation Xrotation Yrotation
                        End Site
                        {
                          OFFSET -0.014 -0.0193 0.0113
                        }
                      }
                    }
                  }
                }
                JOINT rCarpal2
                {
                  OFFSET -2.0956 0.66 -0.3894
                  CHANNELS 6 Xposition Yposition Zposition Zrotation Xrotation Yrotation
                  JOINT rRing1
                  {
                    OFFSET -5.0395 -0.09 2.4971
                    CHANNELS 6 Xposition Yposition Zposition Zrotation Xrotation Yrotation
                    JOINT rRing2
                    {
                      OFFSET -3.7921 -1.552 1.4806
                      CHANNELS 6 Xposition Yposition Zposition Zrotation Xrotation Yrotation
                      JOINT rRing2_End
                      {
                        OFFSET -1.4655 -1.808 0.9609
                        CHANNELS 6 Xposition Yposition Zposition Zrotation Xrotation Yrotation
                        End Site
                        {
                          OFFSET -0.0147 -0.0181 0.0096
                        }
                      }
                    }
                  }
                  JOINT rPinky1
                  {
                    OFFSET -4.9141 -1.269 0.3592
                    CHANNELS 6 Xposition Yposition Zposition Zrotation Xrotation Yrotation
                    JOINT rPinky2
                    {
                      OFFSET -3.1477 -1.685 0.8462
                      CHANNELS 6 Xposition Yposition Zposition Zrotation Xrotation Yrotation
                      JOINT rPinky2_End
                      {
                        OFFSET -0.8055 -1.585 0.7955
                        CHANNELS 6 Xposition Yposition Zposition Zrotation Xrotation Yrotation
                        End Site
                        {
                          OFFSET -0.0081 -0.0158 0.008
                        }
                      }
                    }
                  }
                }
              }
            }
          }
        }
      }
    }
  }
  JOINT lThigh
  {
    OFFSET 8.367 -8.2066 0.5982
    CHANNELS 6 Xposition Yposition Zposition Zrotation Xrotation Yrotation
    JOINT lShin
    {
      OFFSET 2.1923 -43.463 -0.4932
      CHANNELS 6 Xposition Yposition Zposition Zrotation Xrotation Yrotation
      JOINT lFoot
      {
        OFFSET 0.7333 -45.8593 -2.6451
        CHANNELS 6 Xposition Yposition Zposition Zrotation Xrotation Yrotation
        End Site
        {
          OFFSET 2.6618 -4.2699 12.3931
        }
      }
    }
  }
  JOINT rThigh
  {
    OFFSET -8.367 -8.2066 0.5982
    CHANNELS 6 Xposition Yposition Zposition Zrotation Xrotation Yrotation
    JOINT rShin
    {
      OFFSET -2.1923 -43.463 -0.4931
      CHANNELS 6 Xposition Yposition Zposition Zrotation Xrotation Yrotation
      JOINT rFoot
      {
        OFFSET -0.7333 -45.8593 -2.6451
        CHANNELS 6 Xposition Yposition Zposition Zrotation Xrotation Yrotation
        End Site
        {
          OFFSET -2.6618 -4.2699 12.3931
        }
      }
    }
  }
}
MOTION
Frames:	4
Frame Time:	0.0333333
0 90.174 2.4664 0 0 -0 0 -1.186 -1.5018 0 0 -0 0 9.964 0.2134 0 0 -0 0 13.134 -3.2573 0 0 -0 0 20.686 -1.6905 0 0 -0 0 7.238 -0.1237 0 0 -0 1.7069 20.075 5.0056 0 0 -0 13.6458 -0.047 -4.849 1.66051 0.0835086 5.75766 28.3255 -0.9759 2.2888 -0.0175111 0.895433 15.7816 22.1583 -0.53 10.8316 7.95139e-016 -1.98785e-016 -0 0.786 0.112 2.5817 5.46658e-016 -3.97569e-016 -0 0.3601 -0.878 4.2331 5.96354e-016 0 -0 1.8127 -1.216 2.2227 3.97569e-016 1.98785e-016 9.54166e-015 0.9571 1.114 1.7695 1.49089e-016 -3.97569e-016 -0 4.1246 0.487 4.1451 6.4605e-016 0 3.18055e-015 3.4052 -1.454 2.7682 5.96354e-016 0 3.18055e-015 1.4531 -1.795 1.2713 8.94531e-016 -1.98785e-016 6.36111e-015 5.6954 0.21 2.1184 6.4605e-016 0 3.18055e-015 3.9766 -1.54 2.3863 5.96354e-016 0 3.18055e-015 1.4042 -1.926 1.125 8.94531e-016 -1.98785e-016 6.36111e-015 2.0956 0.66 -0.3894 1.49089e-016 -3.97569e-016 -0 5.0395 -0.09 2.4971 6.4605e-016 0 3.18055e-015 3.7921 -1.552 1.4806 5.96354e-016 0 3.18055e-015 1.4655 -1.808 0.9609 8.94531e-016 -1.98785e-016 6.36111e-015 4.9141 -1.269 0.3591 6.4605e-016 0 3.18055e-015 3.1477 -1.685 0.8462 5.96354e-016 0 3.18055e-015 0.8055 -1.585 0.7955 8.94531e-016 -1.98785e-016 6.36111e-015 -1.7069 20.075 5.0056 0 0 -0 -13.6458 -0.047 -4.849 -1.4496 0.0636048 -5.0245 -28.3255 -0.9759 2.2888 -1.74811 1.20616 -16.8394 -22.1583 -0.53 10.8316 -1.19271e-015 1.98785e-016 -3.18055e-015 -0.786 0.112 2.5817 -3.97569e-016 1.98785e-016 -3.18055e-015 -0.3601 -0.878 4.2331 -2.98177e-016 1.98785e-016 -3.18055e-015 -1.8127 -1.216 2.2227 -2.98177e-016 3.97569e-016 -0 -0.9571 1.114 1.7695 4.96962e-016 0 -6.36111e-015 -4.1246 0.487 4.1451 -9.93923e-017 3.97569e-016 -0 -3.4052 -1.454 2.7682 -8.94531e-016 5.96354e-016 -0 -1.4531 -1.795 1.2713 -3.97569e-016 3.97569e-016 -0 -5.6954 0.21 2.1184 -9.93923e-017 3.97569e-016 -0 -3.9766 -1.54 2.3863 -8.94531e-016 5.96354e-016 -0 -1.4042 -1.926 1.125 -3.97569e-016 3.97569e-016 -0 -2.0956 0.66 -0.3894 4.96962e-016 0 -6.36111e-015 -5.0395 -0.09 2.4971 -9.93923e-017 3.97569e-016 -0 -3.7921 -1.552 1.4806 -8.94531e-016 5.96354e-016 -0 -1.4655 -1.808 0.9609 -3.97569e-016 3.97569e-016 -0 -4.9141 -1.269 0.3592 -9.93923e-017 3.97569e-016 -0 -3.1477 -1.685 0.8462 -8.94531e-016 5.96354e-016 -0 -0.8055 -1.585 0.7955 -3.97569e-016 3.97569e-016 -0 8.367 -8.2066 0.5982 -4.66115 -1.03232 0.120763 2.1923 -43.463 -0.4932 0.00990601 1.55097 0.177175 0.7333 -45.8593 -2.6451 4.65196 -0.54114 -0.255042 -8.367 -8.2066 0.5982 4.66115 -1.03222 -0.120763 -2.1923 -43.463 -0.4931 -0.00990459 1.5509 -0.177176 -0.7333 -45.8593 -2.6451 -4.65196 -0.541171 0.255041 
-9.63795 22.3203 -4.61187 -66.6648 66.7347 -0.00340857 3.55271e-015 -1.186 -1.5018 7.73161 3.32328 2.18621 0 9.964 0.2134 15.3724 6.90896 3.91432 3.55271e-015 13.134 -3.2573 15.3724 6.90894 3.91431 0 20.686 -1.6905 20.1717 -0.50168 -5.62074 0 7.238 -0.1237 0.799242 -1.34507 -21.6699 1.7069 20.075 5.0056 1.0854 0.669975 19.9997 13.6458 -0.047 -4.849 -1.12112 25.4614 -16.3506 28.3255 -0.9759 2.2888 42.4454 -35.6671 -23.1196 22.1583 -0.53 10.8316 12.2059 -3.65294 9.44858 0.786 0.112 2.5817 -2.87612e-007 -3.09088e-007 -6.30579e-008 0.3601 -0.878 4.2331 -8.62835e-007 -9.27264e-007 -1.89174e-007 1.8127 -1.216 2.2227 -2.87612e-007 -3.09088e-007 -6.30579e-008 0.9571 1.114 1.7695 -1.59028e-015 3.97569e-016 7.95139e-016 4.1246 0.487 4.1451 -2.87612e-007 -3.09088e-007 -6.30579e-008 3.4052 -1.454 2.7682 -8.62835e-007 -9.27264e-007 -1.89174e-007 1.4531 -1.795 1.2713 -2.87612e-007 -3.09088e-007 -6.30579e-008 5.6954 0.21 2.1184 -2.87612e-007 -3.09088e-007 -6.30579e-008 3.9766 -1.54 2.3863 -8.62835e-007 -9.27264e-007 -1.89174e-007 1.4042 -1.926 1.125 -2.87612e-007 -3.09088e-007 -6.30579e-008 2.0956 0.66 -0.3894 -1.59028e-015 3.97569e-016 7.95139e-016 5.0395 -0.09 2.4971 -2.87612e-007 -3.09088e-007 -6.30579e-008 3.7921 -1.552 1.4806 -8.62835e-007 -9.27264e-007 -1.89174e-007 1.4655 -1.808 0.9609 -2.87612e-007 -3.09088e-007 -6.30579e-008 4.9141 -1.269 0.3591 -2.87612e-007 -3.09088e-007 -6.30579e-008 3.1477 -1.685 0.8462 -8.62835e-007 -9.27264e-007 -1.89174e-007 0.8055 -1.585 0.7955 -2.87612e-007 -3.09088e-007 -6.30579e-008 -1.7069 20.075 5.0056 14.227 5.92193 -2.16315 -13.6458 -0.047 -4.849 -0.955128 -33.4327 -44.0114 -28.3255 -0.9759 2.2888 25.9716 -2.12902 -21.8953 -22.1583 -0.53 10.8316 19.7209 5.90546 -2.50864 -0.786 0.112 2.5817 3.18055e-015 -1.59028e-015 -6.36111e-015 -0.3601 -0.878 4.2331 6.36111e-015 0 -0 -1.8127 -1.216 2.2227 3.18055e-015 -1.59028e-015 3.18055e-015 -0.9571 1.114 1.7695 0 0 -6.36111e-015 -4.1246 0.487 4.1451 -0 0 6.36111e-015 -3.4052 -1.454 2.7682 -8.82781e-032 -1.59028e-015 -3.18055e-015 -1.4531 -1.795 1.2713 3.18055e-015 0 -3.18055e-015 -5.6954 0.21 2.1184 -0 0 6.36111e-015 -3.9766 -1.54 2.3863 -8.82781e-032 -1.59028e-015 -3.18055e-015 -1.4042 -1.926 1.125 3.18055e-015 0 -3.18055e-015 -2.0956 0.66 -0.3894 0 0 -6.36111e-015 -5.0395 -0.09 2.4971 -0 0 6.36111e-015 -3.7921 -1.552 1.4806 -8.82781e-032 -1.59028e-015 -3.18055e-015 -1.4655 -1.808 0.9609 3.18055e-015 0 -3.18055e-015 -4.9141 -1.269 0.3592 -0 0 6.36111e-015 -3.1477 -1.685 0.8462 -8.82781e-032 -1.59028e-015 -3.18055e-015 -0.8055 -1.585 0.7955 3.18055e-015 0 -3.18055e-015 8.367 -8.2066 0.5982 -8.46544 -54.6544 10.6397 2.1923 -43.463 -0.4932 10.6771 42.9699 -9.84313 0.7333 -45.8593 -2.6451 -0.199946 17.5976 -3.06785 -8.367 -8.2066 0.5982 -19.261 -70.872 -2.34248 -2.1923 -43.463 -0.4931 37.0953 38.8306 -46.416 -0.7333 -45.8593 -2.6451 9.91468 7.57643 11.5533 
-19.546 -5.58604 -10.3475 83.3164 83.5394 -179.985 -8.88178e-016 -1.186 -1.5018 11.0641 4.67999 3.34489 8.88178e-016 9.964 0.2134 21.9586 9.91054 5.7543 -4.44089e-016 13.134 -3.2573 21.9586 9.91053 5.75432 3.55271e-015 20.686 -1.6905 29.0744 -0.821037 -8.12373 -3.55271e-015 7.238 -0.1237 0.829584 -1.93131 -31.4272 1.7069 20.075 5.0056 1.54078 0.986414 29.6167 13.6458 -0.047 -4.849 4.80699 33.8701 -29.654 28.3255 -0.9759 2.2888 48.7871 -38.2825 -46.2779 22.1583 -0.53 10.8316 17.638 -5.21509 14.0174 0.786 0.112 2.5817 3.97569e-016 3.18055e-015 -0 0.3601 -0.878 4.2331 -3.97569e-016 3.97569e-015 -0 1.8127 -1.216 2.2227 -7.95139e-016 1.59028e-015 -3.18055e-015 0.9571 1.114 1.7695 3.97569e-016 3.18055e-015 3.18055e-015 4.1246 0.487 4.1451 -3.97569e-016 3.18055e-015 6.36111e-015 3.4052 -1.454 2.7682 7.95139e-016 2.38542e-015 -3.18055e-015 1.4531 -1.795 1.2713 1.59028e-015 -2.38542e-015 -3.18055e-015 5.6954 0.21 2.1184 -3.97569e-016 3.18055e-015 6.36111e-015 3.9766 -1.54 2.3863 7.95139e-016 2.38542e-015 -3.18055e-015 1.4042 -1.926 1.125 1.59028e-015 -2.38542e-015 -3.18055e-015 2.0956 0.66 -0.3894 3.97569e-016 3.18055e-015 3.18055e-015 5.0395 -0.09 2.4971 -3.97569e-016 3.18055e-015 6.36111e-015 3.7921 -1.552 1.4806 7.95139e-016 2.38542e-015 -3.18055e-015 1.4655 -1.808 0.9609 1.59028e-015 -2.38542e-015 -3.18055e-015 4.9141 -1.269 0.3591 -3.97569e-016 3.18055e-015 6.36111e-015 3.1477 -1.685 0.8462 7.95139e-016 2.38542e-015 -3.18055e-015 0.8055 -1.585 0.7955 1.59028e-015 -2.38542e-015 -3.18055e-015 -1.7069 20.075 5.0056 19.9008 8.5028 -2.4055 -13.6458 -0.047 -4.849 -15.4769 -36.4585 -68.3762 -28.3255 -0.9759 2.2888 36.4927 3.712 -22.2043 -22.1583 -0.53 10.8316 28.1951 8.17651 -4.43067 -0.786 0.112 2.5817 -3.97569e-016 -7.95139e-016 -7.95139e-016 -0.3601 -0.878 4.2331 -3.67752e-015 7.95139e-016 -0 -1.8127 -1.216 2.2227 -6.75868e-015 0 -7.95139e-016 -0.9571 1.114 1.7695 2.78299e-015 -7.95139e-016 -0 -4.1246 0.487 4.1451 -3.97569e-015 0 5.56597e-015 -3.4052 -1.454 2.7682 -1.03368e-014 -1.59028e-015 -0 -1.4531 -1.795 1.2713 -7.05686e-015 0 -2.38542e-015 -5.6954 0.21 2.1184 -3.97569e-015 0 5.56597e-015 -3.9766 -1.54 2.3863 -1.03368e-014 -1.59028e-015 -0 -1.4042 -1.926 1.125 -7.05686e-015 0 -2.38542e-015 -2.0956 0.66 -0.3894 2.78299e-015 -7.95139e-016 -0 -5.0395 -0.09 2.4971 -3.97569e-015 0 5.56597e-015 -3.7921 -1.552 1.4806 -1.03368e-014 -1.59028e-015 -0 -1.4655 -1.808 0.9609 -7.05686e-015 0 -2.38542e-015 -4.9141 -1.269 0.3592 -3.97569e-015 0 5.56597e-015 -3.1477 -1.685 0.8462 -1.03368e-014 -1.59028e-015 -0 -0.8055 -1.585 0.7955 -7.05686e-015 0 -2.38542e-015 8.367 -8.2066 0.5982 17.9581 -77.1223 41.4728 2.1923 -43.463 -0.4932 29.5636 63.0501 -27.236 0.7333 -45.8593 -2.6451 -2.14303 23.5202 -2.96539 -8.367 -8.2066 0.5982 160.888 -78.2389 -171.902 -2.1923 -43.463 -0.4931 70.8365 38.4439 -74.0516 -0.7333 -45.8593 -2.6451 15.685 11.407 16.4976 
-17.2419 0.247963 -9.10753 -89.932 89.1776 -0.0704879 2.77556e-017 -1.186 -1.5018 10.3125 4.65915 2.82575 4.44089e-016 9.964 0.2134 20.4933 9.74588 4.79121 -1.77636e-015 13.134 -3.2573 20.4933 9.74586 4.7912 0 20.686 -1.6905 26.7845 -0.96961 -7.50835 0 7.238 -0.1237 0.831542 -2.13532 -29.253 1.7069 20.075 5.0056 1.70737 1.11018 28.8473 13.6458 -0.047 -4.849 3.07413 32.2762 -26.4518 28.3255 -0.9759 2.2888 47.4251 -38.4819 -41.0652 22.1583 -0.53 10.8316 16.4335 -4.87335 12.9858 0.786 0.112 2.5817 1.01319e-007 -3.28426e-008 -6.55034e-009 0.3601 -0.878 4.2331 1.01319e-007 -3.28426e-008 -6.55035e-009 1.8127 -1.216 2.2227 1.01319e-007 -3.28426e-008 -6.55036e-009 0.9571 1.114 1.7695 0 0 -9.54166e-015 4.1246 0.487 4.1451 1.01319e-007 -3.28426e-008 -6.55032e-009 3.4052 -1.454 2.7682 1.01319e-007 -3.28426e-008 -6.55034e-009 1.4531 -1.795 1.2713 1.01319e-007 -3.28426e-008 -6.55035e-009 5.6954 0.21 2.1184 1.01319e-007 -3.28426e-008 -6.55032e-009 3.9766 -1.54 2.3863 1.01319e-007 -3.28426e-008 -6.55034e-009 1.4042 -1.926 1.125 1.01319e-007 -3.28426e-008 -6.55035e-009 2.0956 0.66 -0.3894 0 0 -9.54166e-015 5.0395 -0.09 2.4971 1.01319e-007 -3.28426e-008 -6.55032e-009 3.7921 -1.552 1.4806 1.01319e-007 -3.28426e-008 -6.55034e-009 1.4655 -1.808 0.9609 1.01319e-007 -3.28426e-008 -6.55035e-009 4.9141 -1.269 0.3591 1.01319e-007 -3.28426e-008 -6.55032e-009 3.1477 -1.685 0.8462 1.01319e-007 -3.28426e-008 -6.55034e-009 0.8055 -1.585 0.7955 1.01319e-007 -3.28426e-008 -6.55035e-009 -1.7069 20.075 5.0056 16.7138 7.74329 -0.688227 -13.6458 -0.047 -4.849 -11.9492 -36.4974 -63.3334 -28.3255 -0.9759 2.2888 35.2809 3.69824 -22.1488 -22.1583 -0.53 10.8316 25.2509 7.26531 -3.83213 -0.786 0.112 2.5817 -1.19271e-015 -4.77083e-015 -0 -0.3601 -0.878 4.2331 1.46865e-007 7.52624e-007 -3.75326e-007 -1.8127 -1.216 2.2227 -4.37326e-015 0 -0 -0.9571 1.114 1.7695 -7.95139e-016 -3.18055e-015 -3.18055e-015 -4.1246 0.487 4.1451 -4.77083e-015 -6.36111e-015 6.36111e-015 -3.4052 -1.454 2.7682 1.46865e-007 7.52624e-007 -3.75326e-007 -1.4531 -1.795 1.2713 7.95139e-016 -1.59028e-015 -0 -5.6954 0.21 2.1184 -4.77083e-015 -6.36111e-015 6.36111e-015 -3.9766 -1.54 2.3863 1.46865e-007 7.52624e-007 -3.75326e-007 -1.4042 -1.926 1.125 7.95139e-016 -1.59028e-015 -0 -2.0956 0.66 -0.3894 -7.95139e-016 -3.18055e-015 -3.18055e-015 -5.0395 -0.09 2.4971 -4.77083e-015 -6.36111e-015 6.36111e-015 -3.7921 -1.552 1.4806 1.46865e-007 7.52624e-007 -3.75326e-007 -1.4655 -1.808 0.9609 7.95139e-016 -1.59028e-015 -0 -4.9141 -1.269 0.3592 -4.77083e-015 -6.36111e-015 6.36111e-015 -3.1477 -1.685 0.8462 1.46865e-007 7.52624e-007 -3.75326e-007 -0.8055 -1.585 0.7955 7.95139e-016 -1.59028e-015 -0 8.367 -8.2066 0.5982 5.25416 -72.5974 27.8239 2.1923 -43.463 -0.4932 24.0801 59.5213 -22.289 0.7333 -45.8593 -2.6451 -1.92352 21.9886 -2.67904 -8.367 -8.2066 0.5982 168.316 -85.4258 -166.583 -2.1923 -43.463 -0.4931 63.2099 39.7201 -68.3167 -0.7333 -45.8593 -2.6451 14.7134 10.4846 15.0941 
